<?xml version="1.0" ?><svg id="ICON" viewBox="0 0 512 512" xmlns="http://www.w3.org/2000/svg" xmlns:xlink="http://www.w3.org/1999/xlink"><defs><style>.cls-1,.cls-2{fill:#fff;}.cls-1,.cls-5{stroke:#66667e;}.cls-1,.cls-4,.cls-5,.cls-6{stroke-linecap:round;stroke-linejoin:round;stroke-width:15px;}.cls-3{clip-path:url(#clip-path);}.cls-4{fill:#b8d7f1;stroke:#868697;}.cls-5{fill:none;}.cls-6{fill:#f4e146;stroke:#889;}</style><clipPath id="clip-path"><rect class="cls-1" data-name="&lt;Retângulo&gt;" height="218" id="_Retângulo_" rx="25" ry="25" width="385" x="63.5" y="147"/></clipPath></defs><title/><rect class="cls-2" data-name="&lt;Retângulo&gt;" height="218" id="_Retângulo_2" rx="25" ry="25" width="385" x="63.5" y="147"/><g class="cls-3"><path class="cls-4" d="M449,277.61V233.9A86.9,86.9,0,1,0,362.1,147H150.9A86.9,86.9,0,1,0,63,233.89v43.72A86.9,86.9,0,1,0,150.39,365H361.61A86.9,86.9,0,1,0,449,277.61ZM370.35,184A87.24,87.24,0,0,0,412,225.65v60A87.23,87.23,0,0,0,369.62,328H142.38A87.23,87.23,0,0,0,100,285.62V226.11A87.23,87.23,0,0,0,142.65,184Z"/></g><rect class="cls-5" data-name="&lt;Retângulo&gt;" height="218" id="_Retângulo_3" rx="25" ry="25" width="385" x="63.5" y="147"/><circle class="cls-6" cx="255.5" cy="255.5" r="43"/><circle class="cls-6" cx="351" cy="255.5" r="24"/><circle class="cls-6" cx="161" cy="255.5" r="24"/></svg>